<svg width="184" height="131" viewBox="0 0 184 131" fill="none" xmlns="http://www.w3.org/2000/svg">
<g filter="url(#filter0_d_134_66)">
<rect x="24" y="46.8701" width="127" height="52" rx="10" transform="rotate(-15 24 46.8701)" fill="#3BA3FF"/>
</g>
<path d="M58.7313 73.6188C56.9398 74.0988 55.2126 74.1489 53.5496 73.769C51.8989 73.3679 50.471 72.5931 49.266 71.4445C48.0733 70.2747 47.2436 68.8191 46.7771 67.0779C46.3105 65.3367 46.3035 63.6697 46.756 62.0769C47.2208 60.463 48.0699 59.078 49.3034 57.922C50.5492 56.7448 52.0762 55.914 53.8844 55.4295C55.408 55.0212 56.8527 54.9212 58.2184 55.1295C59.601 55.3333 60.8454 55.8253 61.9517 56.6056L59.9858 59.7164C58.4292 58.662 56.7719 58.3703 55.014 58.8414C53.9257 59.133 53.0197 59.6359 52.2959 60.3503C51.5676 61.0479 51.0751 61.8887 50.8184 62.8726C50.5784 63.8521 50.6042 64.886 50.8958 65.9743C51.1874 67.0626 51.682 67.9708 52.3796 68.6991C53.0939 69.4229 53.9431 69.9131 54.927 70.1699C55.9065 70.4099 56.9404 70.3841 58.0287 70.0925C59.7867 69.6214 61.0739 68.5318 61.8902 66.8237L65.1481 68.5348C64.5846 69.7804 63.7552 70.8371 62.6598 71.7048C61.5644 72.5725 60.2549 73.2105 58.7313 73.6188ZM72.8381 64.0248L70.8039 64.5698L72.1766 69.6931L68.2588 70.7429L64.6385 57.2315L68.5563 56.1817L69.9627 61.4306L72.0723 60.8653L74.3325 54.634L78.5014 53.5169L75.5162 61.2615L82.4483 66.9408L77.8273 68.179L72.8381 64.0248ZM90.3377 65.0422C88.9146 65.4235 87.5553 65.4737 86.2597 65.1928C84.9765 64.8906 83.8754 64.2974 82.9566 63.4131C82.0377 62.5288 81.3988 61.4169 81.0399 60.0775C80.681 58.7381 80.6784 57.4557 81.032 56.2304C81.3856 55.0052 82.0447 53.9493 83.0095 53.0627C83.9865 52.1549 85.1866 51.5103 86.6097 51.129C88.0328 50.7477 89.386 50.7081 90.6693 51.0103C91.9481 51.2957 93.0469 51.8805 93.9657 52.7649C94.8846 53.6492 95.5235 54.761 95.8824 56.1005C96.2412 57.4399 96.2439 58.7222 95.8903 59.9475C95.5367 61.1728 94.8798 62.237 93.9195 63.1404C92.9548 64.0269 91.7608 64.6609 90.3377 65.0422ZM89.4764 61.8276C90.4809 61.5584 91.2116 61.0038 91.6684 60.1636C92.1374 59.3022 92.2194 58.3022 91.9143 57.1637C91.6093 56.0252 91.0405 55.2086 90.2081 54.7138C89.388 54.1978 88.4756 54.0744 87.471 54.3436C86.4665 54.6128 85.7297 55.1781 85.2606 56.0395C84.7871 56.8842 84.7029 57.8757 85.008 59.0142C85.313 60.1528 85.884 60.9777 86.7209 61.4892C87.5533 61.984 88.4718 62.0968 89.4764 61.8276ZM104.674 46.2886C105.93 45.9522 107.147 45.9401 108.325 46.2525C109.516 46.5436 110.545 47.138 111.414 48.0358C112.278 48.9168 112.896 50.0521 113.269 51.4418C113.641 52.8314 113.676 54.1322 113.372 55.344C113.064 56.539 112.47 57.5686 111.589 58.4328C110.72 59.2757 109.658 59.8654 108.402 60.2018C106.678 60.6639 105.176 60.4832 103.896 59.6596L105.585 65.9632L101.668 67.013L96.7417 48.6295L100.484 47.6268L100.901 49.1839C101.558 47.7517 102.816 46.7866 104.674 46.2886ZM106.863 57.1689C107.867 56.8998 108.598 56.3451 109.055 55.5049C109.524 54.6435 109.606 53.6435 109.301 52.505C108.996 51.3665 108.427 50.5499 107.595 50.0551C106.774 49.5392 105.862 49.4158 104.857 49.6849C103.853 49.9541 103.116 50.5194 102.647 51.3808C102.19 52.221 102.114 53.2103 102.419 54.3488C102.725 55.4874 103.287 56.3146 104.107 56.8306C104.94 57.3253 105.858 57.4381 106.863 57.1689ZM124.207 55.9669C122.784 56.3482 121.425 56.3984 120.129 56.1174C118.846 55.8153 117.745 55.222 116.826 54.3377C115.907 53.4534 115.268 52.3415 114.91 51.0021C114.551 49.6627 114.548 48.3804 114.902 47.1551C115.255 45.9298 115.914 44.8739 116.879 43.9873C117.856 43.0795 119.056 42.435 120.479 42.0537C121.902 41.6723 123.256 41.6327 124.539 41.9349C125.818 42.2203 126.917 42.8052 127.835 43.6895C128.754 44.5738 129.393 45.6857 129.752 47.0251C130.111 48.3645 130.114 49.6469 129.76 50.8721C129.406 52.0974 128.749 53.1617 127.789 54.065C126.824 54.9516 125.631 55.5855 124.207 55.9669ZM123.346 52.7523C124.351 52.4831 125.081 51.9284 125.538 51.0882C126.007 50.2268 126.089 49.2268 125.784 48.0883C125.479 46.9498 124.91 46.1332 124.078 45.6385C123.258 45.1225 122.345 44.9991 121.341 45.2683C120.336 45.5374 119.599 46.1027 119.13 46.9641C118.657 47.8088 118.573 48.8004 118.878 49.9389C119.183 51.0774 119.754 51.9024 120.591 52.4139C121.423 52.9086 122.341 53.0214 123.346 52.7523ZM128.969 35.6337L133.64 34.382L135.937 46.0678L132.823 46.9022L128.969 35.6337ZM136.069 52.7886C135.382 52.9726 134.746 52.9097 134.161 52.6C133.588 52.2691 133.216 51.7855 133.045 51.1493C132.875 50.513 132.96 49.9251 133.299 49.3854C133.635 48.8289 134.154 48.4565 134.857 48.2681C135.561 48.0797 136.197 48.1426 136.765 48.4567C137.329 48.7542 137.697 49.221 137.867 49.8572C138.038 50.4935 137.949 51.1004 137.601 51.6781C137.266 52.2345 136.755 52.6047 136.069 52.7886Z" fill="white"/>
<defs>
<filter id="filter0_d_134_66" x="0.244873" y="0.245117" width="183.641" height="130.608" filterUnits="userSpaceOnUse" color-interpolation-filters="sRGB">
<feFlood flood-opacity="0" result="BackgroundImageFix"/>
<feColorMatrix in="SourceAlpha" type="matrix" values="0 0 0 0 0 0 0 0 0 0 0 0 0 0 0 0 0 0 127 0" result="hardAlpha"/>
<feMorphology radius="4" operator="erode" in="SourceAlpha" result="effect1_dropShadow_134_66"/>
<feOffset dy="10"/>
<feGaussianBlur stdDeviation="15"/>
<feComposite in2="hardAlpha" operator="out"/>
<feColorMatrix type="matrix" values="0 0 0 0 0 0 0 0 0 0 0 0 0 0 0 0 0 0 0.25 0"/>
<feBlend mode="normal" in2="BackgroundImageFix" result="effect1_dropShadow_134_66"/>
<feBlend mode="normal" in="SourceGraphic" in2="effect1_dropShadow_134_66" result="shape"/>
</filter>
</defs>
</svg>
