<svg width="184" height="131" viewBox="0 0 184 131" fill="none" xmlns="http://www.w3.org/2000/svg">
<g filter="url(#filter0_d_134_65)">
<rect x="24" y="46.8701" width="127" height="52" rx="10" transform="rotate(-15 24 46.8701)" fill="#C378F7"/>
</g>
<path d="M53.8775 63.4257L56.6343 57.842L55.9277 55.205L43.6218 58.5023L44.4966 61.7672L51.9806 59.7618L49.461 64.8244L50.1811 67.5116L52.0395 67.0137C54.35 66.3946 55.5515 66.9609 55.9082 68.292C56.2917 69.7235 55.2581 70.8887 53.2239 71.4338C51.3905 71.925 49.3773 71.8453 47.7771 71.1974L47.0294 74.7355C49.0601 75.4834 51.7783 75.4818 54.2395 74.8224C59.2372 73.4832 60.7958 70.1585 60.0018 67.1951C59.3087 64.6083 57.1765 63.0801 53.8775 63.4257ZM62.1731 66.4787L69.2803 64.5743L68.4392 61.435L61.3319 63.3394L62.1731 66.4787ZM67.7256 52.0437L69.381 58.2218L72.9974 57.2528L72.2303 54.3898L78.0568 52.8286L75.5754 68.7824L79.9954 67.5981L82.5212 50.9056L81.8146 48.2686L67.7256 52.0437ZM94.1388 49.3269L95.3914 54.8054C95.9522 57.4007 96.4274 59.7767 94.5689 60.2746C94.3931 60.3217 94.1855 60.3505 93.9778 60.3792L94.6383 63.6476C95.4706 63.6399 96.1505 63.5654 96.7533 63.4039C100.093 62.5089 99.9702 58.935 98.8791 54.0593L98.3654 51.6398L102.635 50.4958L105.394 60.7926L109.312 59.7428L105.691 46.2315L94.1388 49.3269ZM124.417 48.5084C123.253 44.1637 119.476 42.3226 115.508 43.3858C111.389 44.4894 109.081 48.2304 110.164 52.2737C111.241 56.292 115.067 58.4161 119.738 57.1644C122.174 56.5117 123.856 55.2536 124.728 53.4856L122.038 51.7839C121.344 52.9118 120.429 53.6147 118.997 53.9983C116.938 54.5501 115.23 53.904 114.403 52.3222L124.624 49.5834C124.562 49.2502 124.498 48.8098 124.417 48.5084ZM116.327 46.3426C118.085 45.8715 119.662 46.6333 120.396 48.2671L113.74 50.0503C113.552 48.2434 114.544 46.8203 116.327 46.3426ZM136.482 37.9811L123.448 41.4736L124.309 44.6882L128.88 43.4634L131.639 53.7602L135.532 52.7172L132.773 42.4204L137.343 41.1957L136.482 37.9811Z" fill="white"/>
<defs>
<filter id="filter0_d_134_65" x="0.244873" y="0.245117" width="183.641" height="130.608" filterUnits="userSpaceOnUse" color-interpolation-filters="sRGB">
<feFlood flood-opacity="0" result="BackgroundImageFix"/>
<feColorMatrix in="SourceAlpha" type="matrix" values="0 0 0 0 0 0 0 0 0 0 0 0 0 0 0 0 0 0 127 0" result="hardAlpha"/>
<feMorphology radius="4" operator="erode" in="SourceAlpha" result="effect1_dropShadow_134_65"/>
<feOffset dy="10"/>
<feGaussianBlur stdDeviation="15"/>
<feComposite in2="hardAlpha" operator="out"/>
<feColorMatrix type="matrix" values="0 0 0 0 0 0 0 0 0 0 0 0 0 0 0 0 0 0 0.25 0"/>
<feBlend mode="normal" in2="BackgroundImageFix" result="effect1_dropShadow_134_65"/>
<feBlend mode="normal" in="SourceGraphic" in2="effect1_dropShadow_134_65" result="shape"/>
</filter>
</defs>
</svg>
