<svg width="185" height="56" viewBox="0 0 185 56" fill="none" xmlns="http://www.w3.org/2000/svg">
<path d="M54.675 12.182V25H51.343V12.182H54.675ZM57.0638 16.279H60.1408V17.384C60.5601 16.874 60.9851 16.534 61.4158 16.364C61.8464 16.1827 62.3508 16.092 62.9288 16.092C63.5408 16.092 64.0621 16.194 64.4928 16.398C64.9348 16.5907 65.3088 16.8683 65.6148 17.231C65.8641 17.5257 66.0341 17.8543 66.1248 18.217C66.2154 18.5797 66.2608 18.9933 66.2608 19.458V25H63.1838V20.597C63.1838 20.1663 63.1498 19.8207 63.0818 19.56C63.0251 19.288 62.9174 19.0727 62.7588 18.914C62.6228 18.778 62.4698 18.6817 62.2998 18.625C62.1298 18.5683 61.9484 18.54 61.7558 18.54C61.2344 18.54 60.8321 18.6987 60.5488 19.016C60.2768 19.322 60.1408 19.764 60.1408 20.342V25H57.0638V16.279ZM68.3528 16.279H71.4298V17.384C71.8492 16.874 72.2742 16.534 72.7048 16.364C73.1355 16.1827 73.6398 16.092 74.2178 16.092C74.8298 16.092 75.3512 16.194 75.7818 16.398C76.2238 16.5907 76.5978 16.8683 76.9038 17.231C77.1532 17.5257 77.3232 17.8543 77.4138 18.217C77.5045 18.5797 77.5498 18.9933 77.5498 19.458V25H74.4728V20.597C74.4728 20.1663 74.4388 19.8207 74.3708 19.56C74.3142 19.288 74.2065 19.0727 74.0478 18.914C73.9118 18.778 73.7588 18.6817 73.5888 18.625C73.4188 18.5683 73.2375 18.54 73.0448 18.54C72.5235 18.54 72.1212 18.6987 71.8378 19.016C71.5658 19.322 71.4298 19.764 71.4298 20.342V25H68.3528V16.279ZM82.5489 20.597C82.5489 20.8917 82.5999 21.1637 82.7019 21.413C82.8152 21.651 82.9569 21.8607 83.1269 22.042C83.3082 22.2233 83.5179 22.365 83.7559 22.467C84.0052 22.569 84.2659 22.62 84.5379 22.62C84.8099 22.62 85.0649 22.569 85.3029 22.467C85.5522 22.365 85.7619 22.2233 85.9319 22.042C86.1132 21.8607 86.2549 21.651 86.3569 21.413C86.4702 21.1637 86.5269 20.8973 86.5269 20.614C86.5269 20.342 86.4702 20.087 86.3569 19.849C86.2549 19.5997 86.1132 19.3843 85.9319 19.203C85.7619 19.0217 85.5522 18.88 85.3029 18.778C85.0649 18.676 84.8099 18.625 84.5379 18.625C84.2659 18.625 84.0052 18.676 83.7559 18.778C83.5179 18.88 83.3082 19.0217 83.1269 19.203C82.9569 19.3843 82.8152 19.594 82.7019 19.832C82.5999 20.07 82.5489 20.325 82.5489 20.597ZM79.3019 20.563C79.3019 19.917 79.4322 19.3163 79.6929 18.761C79.9536 18.1943 80.3162 17.707 80.7809 17.299C81.2456 16.8797 81.7952 16.551 82.4299 16.313C83.0759 16.075 83.7786 15.956 84.5379 15.956C85.2859 15.956 85.9772 16.075 86.6119 16.313C87.2579 16.5397 87.8132 16.8627 88.2779 17.282C88.7539 17.69 89.1222 18.183 89.3829 18.761C89.6436 19.3277 89.7739 19.9567 89.7739 20.648C89.7739 21.3393 89.6379 21.974 89.3659 22.552C89.1052 23.1187 88.7426 23.6117 88.2779 24.031C87.8132 24.439 87.2522 24.7563 86.5949 24.983C85.9489 25.2097 85.2462 25.323 84.4869 25.323C83.7389 25.323 83.0476 25.2097 82.4129 24.983C81.7782 24.7563 81.2286 24.4333 80.7639 24.014C80.3106 23.5947 79.9536 23.096 79.6929 22.518C79.4322 21.9287 79.3019 21.277 79.3019 20.563ZM100.944 12.182V22.178H104.939V25H97.6116V12.182H100.944ZM109.447 16.279V25H106.37V16.279H109.447ZM106.166 12.93C106.166 12.692 106.212 12.471 106.302 12.267C106.393 12.0517 106.518 11.8647 106.676 11.706C106.835 11.5473 107.016 11.4227 107.22 11.332C107.436 11.2413 107.662 11.196 107.9 11.196C108.138 11.196 108.359 11.2413 108.563 11.332C108.779 11.4227 108.966 11.5473 109.124 11.706C109.283 11.8647 109.408 12.0517 109.498 12.267C109.589 12.471 109.634 12.692 109.634 12.93C109.634 13.168 109.589 13.3947 109.498 13.61C109.408 13.814 109.283 13.9953 109.124 14.154C108.966 14.3127 108.779 14.4373 108.563 14.528C108.359 14.6187 108.138 14.664 107.9 14.664C107.662 14.664 107.436 14.6187 107.22 14.528C107.016 14.4373 106.835 14.3127 106.676 14.154C106.518 13.9953 106.393 13.814 106.302 13.61C106.212 13.3947 106.166 13.168 106.166 12.93ZM111.55 16.279H114.627V17.384C115.046 16.874 115.471 16.534 115.902 16.364C116.333 16.1827 116.837 16.092 117.415 16.092C118.027 16.092 118.548 16.194 118.979 16.398C119.421 16.5907 119.795 16.8683 120.101 17.231C120.35 17.5257 120.52 17.8543 120.611 18.217C120.702 18.5797 120.747 18.9933 120.747 19.458V25H117.67V20.597C117.67 20.1663 117.636 19.8207 117.568 19.56C117.511 19.288 117.404 19.0727 117.245 18.914C117.109 18.778 116.956 18.6817 116.786 18.625C116.616 18.5683 116.435 18.54 116.242 18.54C115.721 18.54 115.318 18.6987 115.035 19.016C114.763 19.322 114.627 19.764 114.627 20.342V25H111.55V16.279ZM125.695 20.597C125.695 20.8803 125.746 21.1467 125.848 21.396C125.95 21.634 126.086 21.8437 126.256 22.025C126.438 22.2063 126.647 22.348 126.885 22.45C127.135 22.552 127.401 22.603 127.684 22.603C127.956 22.603 128.211 22.552 128.449 22.45C128.699 22.348 128.908 22.2063 129.078 22.025C129.26 21.8437 129.401 21.634 129.503 21.396C129.616 21.1467 129.673 20.886 129.673 20.614C129.673 20.3307 129.616 20.07 129.503 19.832C129.401 19.594 129.26 19.3843 129.078 19.203C128.897 19.0217 128.681 18.88 128.432 18.778C128.194 18.676 127.945 18.625 127.684 18.625C127.412 18.625 127.157 18.6817 126.919 18.795C126.681 18.897 126.471 19.0387 126.29 19.22C126.109 19.39 125.961 19.594 125.848 19.832C125.746 20.07 125.695 20.325 125.695 20.597ZM132.597 16.279V24.405C132.597 24.8923 132.569 25.3287 132.512 25.714C132.455 26.0993 132.376 26.4393 132.274 26.734C132.138 27.108 131.923 27.4537 131.628 27.771C131.345 28.0997 130.999 28.383 130.591 28.621C130.183 28.859 129.718 29.046 129.197 29.182C128.687 29.318 128.132 29.386 127.531 29.386C126.851 29.386 126.228 29.301 125.661 29.131C125.095 28.961 124.596 28.723 124.165 28.417C123.746 28.1223 123.4 27.771 123.128 27.363C122.856 26.9663 122.675 26.53 122.584 26.054H126.052C126.268 26.632 126.755 26.921 127.514 26.921C128.16 26.921 128.653 26.7397 128.993 26.377C129.345 26.0143 129.52 25.51 129.52 24.864V24.031C129.294 24.2463 129.073 24.4277 128.857 24.575C128.653 24.711 128.444 24.8243 128.228 24.915C128.013 25.0057 127.786 25.068 127.548 25.102C127.31 25.1473 127.049 25.17 126.766 25.17C126.143 25.17 125.571 25.0623 125.049 24.847C124.528 24.6317 124.075 24.3313 123.689 23.946C123.315 23.5607 123.02 23.1017 122.805 22.569C122.601 22.025 122.499 21.4243 122.499 20.767C122.499 20.0983 122.613 19.4807 122.839 18.914C123.066 18.336 123.372 17.8373 123.757 17.418C124.154 16.9873 124.618 16.653 125.151 16.415C125.695 16.1657 126.284 16.041 126.919 16.041C127.95 16.041 128.818 16.4263 129.52 17.197V16.279H132.597ZM137.273 16.279L139.347 20.75L141.455 16.279H144.889L140.35 25H138.293L133.805 16.279H137.273ZM148.407 20.597C148.407 20.8917 148.458 21.1637 148.56 21.413C148.674 21.651 148.815 21.8607 148.985 22.042C149.167 22.2233 149.376 22.365 149.614 22.467C149.864 22.569 150.124 22.62 150.396 22.62C150.668 22.62 150.923 22.569 151.161 22.467C151.411 22.365 151.62 22.2233 151.79 22.042C151.972 21.8607 152.113 21.651 152.215 21.413C152.329 21.1637 152.385 20.8973 152.385 20.614C152.385 20.342 152.329 20.087 152.215 19.849C152.113 19.5997 151.972 19.3843 151.79 19.203C151.62 19.0217 151.411 18.88 151.161 18.778C150.923 18.676 150.668 18.625 150.396 18.625C150.124 18.625 149.864 18.676 149.614 18.778C149.376 18.88 149.167 19.0217 148.985 19.203C148.815 19.3843 148.674 19.594 148.56 19.832C148.458 20.07 148.407 20.325 148.407 20.597ZM145.16 20.563C145.16 19.917 145.291 19.3163 145.551 18.761C145.812 18.1943 146.175 17.707 146.639 17.299C147.104 16.8797 147.654 16.551 148.288 16.313C148.934 16.075 149.637 15.956 150.396 15.956C151.144 15.956 151.836 16.075 152.47 16.313C153.116 16.5397 153.672 16.8627 154.136 17.282C154.612 17.69 154.981 18.183 155.241 18.761C155.502 19.3277 155.632 19.9567 155.632 20.648C155.632 21.3393 155.496 21.974 155.224 22.552C154.964 23.1187 154.601 23.6117 154.136 24.031C153.672 24.439 153.111 24.7563 152.453 24.983C151.807 25.2097 151.105 25.323 150.345 25.323C149.597 25.323 148.906 25.2097 148.271 24.983C147.637 24.7563 147.087 24.4333 146.622 24.014C146.169 23.5947 145.812 23.096 145.551 22.518C145.291 21.9287 145.16 21.277 145.16 20.563Z" fill="white"/>
<path d="M53.1459 30.146C54.1726 30.146 54.9206 30.3477 55.3899 30.751C55.8592 31.1543 56.0939 31.7227 56.0939 32.456C56.0939 32.8887 55.9949 33.2957 55.7969 33.677C55.6062 34.051 55.2799 34.3553 54.8179 34.59C54.3632 34.8247 53.7436 34.942 52.9589 34.942H52.0569V38H51.0669V30.146H53.1459ZM53.0579 30.993H52.0569V34.095H52.8489C53.5969 34.095 54.1542 33.974 54.5209 33.732C54.8876 33.49 55.0709 33.0793 55.0709 32.5C55.0709 31.994 54.9096 31.6163 54.5869 31.367C54.2642 31.1177 53.7546 30.993 53.0579 30.993ZM59.8281 32.005C60.5467 32.005 61.0784 32.1627 61.4231 32.478C61.7677 32.7933 61.9401 33.2957 61.9401 33.985V38H61.2361L61.0491 37.164H61.0051C60.7484 37.4867 60.4771 37.725 60.1911 37.879C59.9124 38.033 59.5237 38.11 59.0251 38.11C58.4897 38.11 58.0461 37.9707 57.6941 37.692C57.3421 37.406 57.1661 36.9623 57.1661 36.361C57.1661 35.7743 57.3971 35.3233 57.8591 35.008C58.3211 34.6853 59.0324 34.5093 59.9931 34.48L60.9941 34.447V34.095C60.9941 33.6037 60.8877 33.2627 60.6751 33.072C60.4624 32.8813 60.1617 32.786 59.7731 32.786C59.4651 32.786 59.1717 32.8337 58.8931 32.929C58.6144 33.017 58.3541 33.1197 58.1121 33.237L57.8151 32.511C58.0717 32.3717 58.3761 32.2543 58.7281 32.159C59.0801 32.0563 59.4467 32.005 59.8281 32.005ZM60.1141 35.151C59.3807 35.1803 58.8711 35.2977 58.5851 35.503C58.3064 35.7083 58.1671 35.998 58.1671 36.372C58.1671 36.702 58.2661 36.944 58.4641 37.098C58.6694 37.252 58.9297 37.329 59.2451 37.329C59.7437 37.329 60.1581 37.1933 60.4881 36.922C60.8181 36.6433 60.9831 36.218 60.9831 35.646V35.118L60.1141 35.151ZM65.3121 31.994C65.9867 31.994 66.5221 32.1297 66.9181 32.401C67.3214 32.665 67.5231 33.0463 67.5231 33.545C67.5231 33.9043 67.4241 34.1903 67.2261 34.403C67.0281 34.6083 66.7567 34.7587 66.4121 34.854V34.898C66.6467 34.964 66.8631 35.0557 67.0611 35.173C67.2591 35.2903 67.4167 35.4443 67.5341 35.635C67.6587 35.8257 67.7211 36.0713 67.7211 36.372C67.7211 36.8633 67.5157 37.2777 67.1051 37.615C66.7017 37.945 66.0674 38.11 65.2021 38.11C64.7767 38.11 64.3917 38.0733 64.0471 38C63.7024 37.934 63.4164 37.8423 63.1891 37.725V36.856C63.4384 36.9733 63.7317 37.0797 64.0691 37.175C64.4137 37.2703 64.7877 37.318 65.1911 37.318C65.6311 37.318 66.0014 37.2447 66.3021 37.098C66.6101 36.944 66.7641 36.6837 66.7641 36.317C66.7641 35.657 66.2031 35.327 65.0811 35.327H64.2891V34.535H64.9271C65.4331 34.535 65.8364 34.469 66.1371 34.337C66.4451 34.1977 66.5991 33.963 66.5991 33.633C66.5991 33.3543 66.4817 33.1453 66.2471 33.006C66.0197 32.8667 65.6897 32.797 65.2571 32.797C64.9344 32.797 64.6484 32.83 64.3991 32.896C64.1571 32.9547 63.8894 33.0463 63.5961 33.171L63.2551 32.401C63.8711 32.1297 64.5567 31.994 65.3121 31.994ZM73.8947 33.589C73.8947 33.9557 73.7847 34.2417 73.5647 34.447C73.3447 34.6523 73.0623 34.7917 72.7177 34.865V34.909C73.0843 34.9603 73.4033 35.0923 73.6747 35.305C73.946 35.5103 74.0817 35.833 74.0817 36.273C74.0817 36.7717 73.8947 37.186 73.5207 37.516C73.154 37.8387 72.5453 38 71.6947 38H69.1537V32.104H71.6837C72.1017 32.104 72.4757 32.1517 72.8057 32.247C73.143 32.335 73.407 32.489 73.5977 32.709C73.7957 32.9217 73.8947 33.215 73.8947 33.589ZM72.9157 33.71C72.9157 33.4313 72.813 33.2297 72.6077 33.105C72.4097 32.973 72.0833 32.907 71.6287 32.907H70.1217V34.524H71.4526C72.428 34.524 72.9157 34.2527 72.9157 33.71ZM73.0807 36.273C73.0807 35.9357 72.9523 35.6937 72.6957 35.547C72.439 35.4003 72.0613 35.327 71.5627 35.327H70.1217V37.219H71.5847C72.0687 37.219 72.439 37.1493 72.6957 37.01C72.9523 36.8633 73.0807 36.6177 73.0807 36.273ZM76.4045 35.701C76.4045 35.789 76.4009 35.921 76.3935 36.097C76.3862 36.273 76.3752 36.449 76.3605 36.625C76.3532 36.801 76.3459 36.9403 76.3385 37.043L79.4955 32.104H80.6835V38H79.7815V34.524C79.7815 34.4067 79.7815 34.2527 79.7815 34.062C79.7889 33.8713 79.7962 33.6843 79.8035 33.501C79.8109 33.3103 79.8182 33.1673 79.8255 33.072L76.6905 38H75.4915V32.104H76.4045V35.701ZM87.3009 33.589C87.3009 33.9557 87.1909 34.2417 86.9709 34.447C86.7509 34.6523 86.4686 34.7917 86.1239 34.865V34.909C86.4906 34.9603 86.8096 35.0923 87.0809 35.305C87.3522 35.5103 87.4879 35.833 87.4879 36.273C87.4879 36.7717 87.3009 37.186 86.9269 37.516C86.5602 37.8387 85.9516 38 85.1009 38H82.5599V32.104H85.0899C85.5079 32.104 85.8819 32.1517 86.2119 32.247C86.5492 32.335 86.8132 32.489 87.0039 32.709C87.2019 32.9217 87.3009 33.215 87.3009 33.589ZM86.3219 33.71C86.3219 33.4313 86.2192 33.2297 86.0139 33.105C85.8159 32.973 85.4896 32.907 85.0349 32.907H83.5279V34.524H84.8589C85.8342 34.524 86.3219 34.2527 86.3219 33.71ZM86.4869 36.273C86.4869 35.9357 86.3586 35.6937 86.1019 35.547C85.8452 35.4003 85.4676 35.327 84.9689 35.327H83.5279V37.219H84.9909C85.4749 37.219 85.8452 37.1493 86.1019 37.01C86.3586 36.8633 86.4869 36.6177 86.4869 36.273ZM91.1308 32.005C91.8495 32.005 92.3811 32.1627 92.7258 32.478C93.0705 32.7933 93.2428 33.2957 93.2428 33.985V38H92.5388L92.3518 37.164H92.3078C92.0511 37.4867 91.7798 37.725 91.4938 37.879C91.2151 38.033 90.8265 38.11 90.3278 38.11C89.7925 38.11 89.3488 37.9707 88.9968 37.692C88.6448 37.406 88.4688 36.9623 88.4688 36.361C88.4688 35.7743 88.6998 35.3233 89.1618 35.008C89.6238 34.6853 90.3351 34.5093 91.2958 34.48L92.2968 34.447V34.095C92.2968 33.6037 92.1905 33.2627 91.9778 33.072C91.7651 32.8813 91.4645 32.786 91.0758 32.786C90.7678 32.786 90.4745 32.8337 90.1958 32.929C89.9171 33.017 89.6568 33.1197 89.4148 33.237L89.1178 32.511C89.3745 32.3717 89.6788 32.2543 90.0308 32.159C90.3828 32.0563 90.7495 32.005 91.1308 32.005ZM91.4168 35.151C90.6835 35.1803 90.1738 35.2977 89.8878 35.503C89.6091 35.7083 89.4698 35.998 89.4698 36.372C89.4698 36.702 89.5688 36.944 89.7668 37.098C89.9721 37.252 90.2325 37.329 90.5478 37.329C91.0465 37.329 91.4608 37.1933 91.7908 36.922C92.1208 36.6433 92.2858 36.218 92.2858 35.646V35.118L91.4168 35.151ZM97.3408 31.994C97.8468 31.994 98.2795 32.104 98.6388 32.324C99.0055 32.544 99.2841 32.8557 99.4748 33.259C99.6728 33.655 99.7718 34.1207 99.7718 34.656V35.239H95.7348C95.7495 35.9063 95.9181 36.416 96.2408 36.768C96.5708 37.1127 97.0291 37.285 97.6158 37.285C97.9898 37.285 98.3198 37.252 98.6058 37.186C98.8991 37.1127 99.1998 37.01 99.5078 36.878V37.725C99.2071 37.857 98.9101 37.9523 98.6168 38.011C98.3235 38.077 97.9751 38.11 97.5718 38.11C97.0145 38.11 96.5195 37.9963 96.0868 37.769C95.6615 37.5417 95.3278 37.2043 95.0858 36.757C94.8511 36.3023 94.7338 35.7487 94.7338 35.096C94.7338 34.4507 94.8401 33.897 95.0528 33.435C95.2728 32.973 95.5771 32.6173 95.9658 32.368C96.3618 32.1187 96.8201 31.994 97.3408 31.994ZM97.3298 32.786C96.8678 32.786 96.5011 32.9363 96.2298 33.237C95.9658 33.5303 95.8081 33.941 95.7568 34.469H98.7598C98.7525 33.9703 98.6351 33.567 98.4078 33.259C98.1805 32.9437 97.8211 32.786 97.3298 32.786ZM107.598 32.104V38H106.729V34.238C106.729 34.084 106.732 33.9227 106.74 33.754C106.754 33.5853 106.769 33.4203 106.784 33.259H106.751L104.826 38H104.012L102.142 33.259H102.109C102.131 33.589 102.142 33.9263 102.142 34.271V38H101.273V32.104H102.56L104.419 36.845L106.311 32.104H107.598ZM115.679 31.994C116.405 31.994 116.988 32.247 117.428 32.753C117.876 33.259 118.1 34.0217 118.1 35.041C118.1 36.0457 117.876 36.8083 117.428 37.329C116.988 37.8497 116.402 38.11 115.669 38.11C115.214 38.11 114.836 38.0257 114.535 37.857C114.242 37.681 114.011 37.4793 113.842 37.252H113.777C113.791 37.3767 113.806 37.5343 113.82 37.725C113.835 37.9157 113.842 38.0807 113.842 38.22V40.64H112.875V32.104H113.667L113.799 32.907H113.842C114.018 32.6503 114.249 32.434 114.535 32.258C114.821 32.082 115.203 31.994 115.679 31.994ZM115.504 32.808C114.902 32.808 114.477 32.9767 114.228 33.314C113.986 33.6513 113.857 34.1647 113.842 34.854V35.041C113.842 35.767 113.96 36.328 114.194 36.724C114.436 37.1127 114.88 37.307 115.525 37.307C115.885 37.307 116.178 37.208 116.406 37.01C116.64 36.812 116.813 36.5443 116.923 36.207C117.04 35.8623 117.099 35.47 117.099 35.03C117.099 34.3553 116.966 33.8163 116.702 33.413C116.446 33.0097 116.046 32.808 115.504 32.808ZM118.611 32.104H119.645L120.921 35.459C121.031 35.7523 121.13 36.0347 121.218 36.306C121.306 36.57 121.372 36.823 121.416 37.065H121.46C121.504 36.8817 121.573 36.6433 121.669 36.35C121.764 36.0493 121.863 35.7487 121.966 35.448L123.165 32.104H124.21L121.669 38.814C121.463 39.3713 121.196 39.815 120.866 40.145C120.543 40.475 120.096 40.64 119.524 40.64C119.348 40.64 119.194 40.629 119.062 40.607C118.93 40.5923 118.816 40.574 118.721 40.552V39.782C118.801 39.7967 118.897 39.8113 119.007 39.826C119.124 39.8407 119.245 39.848 119.37 39.848C119.707 39.848 119.978 39.7527 120.184 39.562C120.396 39.3713 120.561 39.1183 120.679 38.803L120.987 38.022L118.611 32.104ZM127.507 38.11C126.986 38.11 126.521 38.0037 126.11 37.791C125.707 37.5783 125.388 37.2483 125.153 36.801C124.926 36.3537 124.812 35.7817 124.812 35.085C124.812 34.359 124.933 33.7687 125.175 33.314C125.417 32.8593 125.743 32.5257 126.154 32.313C126.572 32.1003 127.045 31.994 127.573 31.994C127.874 31.994 128.163 32.027 128.442 32.093C128.721 32.1517 128.948 32.225 129.124 32.313L128.827 33.116C128.651 33.05 128.446 32.9877 128.211 32.929C127.976 32.8703 127.756 32.841 127.551 32.841C126.392 32.841 125.813 33.5853 125.813 35.074C125.813 35.7853 125.952 36.3317 126.231 36.713C126.517 37.087 126.939 37.274 127.496 37.274C127.819 37.274 128.101 37.241 128.343 37.175C128.592 37.109 128.82 37.0283 129.025 36.933V37.791C128.827 37.8937 128.607 37.9707 128.365 38.022C128.13 38.0807 127.844 38.11 127.507 38.11ZM132.792 38.11C132.271 38.11 131.806 38.0037 131.395 37.791C130.992 37.5783 130.673 37.2483 130.438 36.801C130.211 36.3537 130.097 35.7817 130.097 35.085C130.097 34.359 130.218 33.7687 130.46 33.314C130.702 32.8593 131.029 32.5257 131.439 32.313C131.857 32.1003 132.33 31.994 132.858 31.994C133.159 31.994 133.449 32.027 133.727 32.093C134.006 32.1517 134.233 32.225 134.409 32.313L134.112 33.116C133.936 33.05 133.731 32.9877 133.496 32.929C133.262 32.8703 133.041 32.841 132.836 32.841C131.677 32.841 131.098 33.5853 131.098 35.074C131.098 35.7853 131.237 36.3317 131.516 36.713C131.802 37.087 132.224 37.274 132.781 37.274C133.104 37.274 133.386 37.241 133.628 37.175C133.877 37.109 134.105 37.0283 134.31 36.933V37.791C134.112 37.8937 133.892 37.9707 133.65 38.022C133.415 38.0807 133.129 38.11 132.792 38.11ZM139.199 32.104H140.255L137.736 34.942L140.464 38H139.342L136.68 35.008V38H135.712V32.104H136.68V34.964L139.199 32.104ZM140.611 32.104H141.645L142.921 35.459C143.031 35.7523 143.13 36.0347 143.218 36.306C143.306 36.57 143.372 36.823 143.416 37.065H143.46C143.504 36.8817 143.573 36.6433 143.669 36.35C143.764 36.0493 143.863 35.7487 143.966 35.448L145.165 32.104H146.21L143.669 38.814C143.463 39.3713 143.196 39.815 142.866 40.145C142.543 40.475 142.096 40.64 141.524 40.64C141.348 40.64 141.194 40.629 141.062 40.607C140.93 40.5923 140.816 40.574 140.721 40.552V39.782C140.801 39.7967 140.897 39.8113 141.007 39.826C141.124 39.8407 141.245 39.848 141.37 39.848C141.707 39.848 141.978 39.7527 142.184 39.562C142.396 39.3713 142.561 39.1183 142.679 38.803L142.987 38.022L140.611 32.104ZM154.798 35.041C154.798 36.0163 154.563 36.7717 154.094 37.307C153.625 37.8423 152.99 38.11 152.191 38.11C151.443 38.11 150.838 37.8753 150.376 37.406C149.921 36.9367 149.665 36.2583 149.606 35.371H148.11V38H147.142V32.104H148.11V34.557H149.617C149.698 33.7283 149.965 33.094 150.42 32.654C150.875 32.214 151.472 31.994 152.213 31.994C152.719 31.994 153.166 32.115 153.555 32.357C153.944 32.5917 154.248 32.9363 154.468 33.391C154.688 33.8383 154.798 34.3883 154.798 35.041ZM150.596 35.041C150.596 35.7817 150.724 36.3463 150.981 36.735C151.238 37.1163 151.645 37.307 152.202 37.307C152.767 37.307 153.174 37.1163 153.423 36.735C153.672 36.3463 153.797 35.7817 153.797 35.041C153.797 34.3003 153.669 33.743 153.412 33.369C153.163 32.995 152.759 32.808 152.202 32.808C151.645 32.808 151.238 32.995 150.981 33.369C150.724 33.743 150.596 34.3003 150.596 35.041ZM162.537 31.994C163.263 31.994 163.846 32.247 164.286 32.753C164.733 33.259 164.957 34.0217 164.957 35.041C164.957 36.0457 164.733 36.8083 164.286 37.329C163.846 37.8497 163.259 38.11 162.526 38.11C162.071 38.11 161.694 38.0257 161.393 37.857C161.1 37.681 160.869 37.4793 160.7 37.252H160.634C160.649 37.3767 160.663 37.5343 160.678 37.725C160.693 37.9157 160.7 38.0807 160.7 38.22V40.64H159.732V32.104H160.524L160.656 32.907H160.7C160.876 32.6503 161.107 32.434 161.393 32.258C161.679 32.082 162.06 31.994 162.537 31.994ZM162.361 32.808C161.76 32.808 161.334 32.9767 161.085 33.314C160.843 33.6513 160.715 34.1647 160.7 34.854V35.041C160.7 35.767 160.817 36.328 161.052 36.724C161.294 37.1127 161.738 37.307 162.383 37.307C162.742 37.307 163.036 37.208 163.263 37.01C163.498 36.812 163.67 36.5443 163.78 36.207C163.897 35.8623 163.956 35.47 163.956 35.03C163.956 34.3553 163.824 33.8163 163.56 33.413C163.303 33.0097 162.904 32.808 162.361 32.808ZM168.776 31.994C169.282 31.994 169.715 32.104 170.074 32.324C170.441 32.544 170.72 32.8557 170.91 33.259C171.108 33.655 171.207 34.1207 171.207 34.656V35.239H167.17C167.185 35.9063 167.354 36.416 167.676 36.768C168.006 37.1127 168.465 37.285 169.051 37.285C169.425 37.285 169.755 37.252 170.041 37.186C170.335 37.1127 170.635 37.01 170.943 36.878V37.725C170.643 37.857 170.346 37.9523 170.052 38.011C169.759 38.077 169.411 38.11 169.007 38.11C168.45 38.11 167.955 37.9963 167.522 37.769C167.097 37.5417 166.763 37.2043 166.521 36.757C166.287 36.3023 166.169 35.7487 166.169 35.096C166.169 34.4507 166.276 33.897 166.488 33.435C166.708 32.973 167.013 32.6173 167.401 32.368C167.797 32.1187 168.256 31.994 168.776 31.994ZM168.765 32.786C168.303 32.786 167.937 32.9363 167.665 33.237C167.401 33.5303 167.244 33.941 167.192 34.469H170.195C170.188 33.9703 170.071 33.567 169.843 33.259C169.616 32.9437 169.257 32.786 168.765 32.786ZM173.555 34.249C173.555 34.9237 173.933 35.261 174.688 35.261C175.055 35.261 175.389 35.206 175.689 35.096C175.99 34.9787 176.298 34.8247 176.613 34.634V32.104H177.581V38H176.613V35.371C176.283 35.5837 175.957 35.7523 175.634 35.877C175.319 35.9943 174.938 36.053 174.49 36.053C173.889 36.053 173.42 35.8953 173.082 35.58C172.752 35.2647 172.587 34.843 172.587 34.315V32.104H173.555V34.249ZM182.172 34.524C183.704 34.524 184.471 35.0813 184.471 36.196C184.471 36.746 184.284 37.186 183.91 37.516C183.536 37.8387 182.942 38 182.128 38H179.455V32.104H180.423V34.524H182.172ZM183.503 36.251C183.503 35.8917 183.374 35.6497 183.118 35.525C182.868 35.393 182.516 35.327 182.062 35.327H180.423V37.219H182.084C182.494 37.219 182.832 37.1457 183.096 36.999C183.367 36.8523 183.503 36.603 183.503 36.251Z" fill="white"/>
<g filter="url(#filter0_d_110_243)">
<path d="M28 42C37.9411 42 46 33.9411 46 24C46 14.0589 37.9411 6 28 6C18.0589 6 10 14.0589 10 24C10 33.9411 18.0589 42 28 42Z" fill="url(#paint0_linear_110_243)"/>
</g>
<defs>
<filter id="filter0_d_110_243" x="0" y="0" width="56" height="56" filterUnits="userSpaceOnUse" color-interpolation-filters="sRGB">
<feFlood flood-opacity="0" result="BackgroundImageFix"/>
<feColorMatrix in="SourceAlpha" type="matrix" values="0 0 0 0 0 0 0 0 0 0 0 0 0 0 0 0 0 0 127 0" result="hardAlpha"/>
<feOffset dy="4"/>
<feGaussianBlur stdDeviation="5"/>
<feComposite in2="hardAlpha" operator="out"/>
<feColorMatrix type="matrix" values="0 0 0 0 0 0 0 0 0 0 0 0 0 0 0 0 0 0 0.1 0"/>
<feBlend mode="normal" in2="BackgroundImageFix" result="effect1_dropShadow_110_243"/>
<feBlend mode="normal" in="SourceGraphic" in2="effect1_dropShadow_110_243" result="shape"/>
</filter>
<linearGradient id="paint0_linear_110_243" x1="28" y1="24" x2="28" y2="42" gradientUnits="userSpaceOnUse">
<stop stop-color="#B467E9"/>
<stop offset="1" stop-color="#E967CC"/>
</linearGradient>
</defs>
</svg>
