<svg width="18" height="7" viewBox="0 0 18 7" fill="none" xmlns="http://www.w3.org/2000/svg">
<path fill-rule="evenodd" clip-rule="evenodd" d="M8.42294e-05 3.50034C8.4241e-05 3.36774 0.0527614 3.24056 0.14653 3.14679C0.2403 3.05302 0.367476 3.00034 0.500084 3.00034L16.2931 3.00034L14.1461 0.854345C14.0996 0.807857 14.0627 0.752668 14.0376 0.691928C14.0124 0.631189 13.9995 0.566088 13.9995 0.500344C13.9995 0.4346 14.0124 0.3695 14.0376 0.308761C14.0627 0.248021 14.0996 0.192832 14.1461 0.146344C14.1926 0.0998565 14.2478 0.0629798 14.3085 0.037821C14.3692 0.0126621 14.4343 -0.000286891 14.5001 -0.000286885C14.5658 -0.000286879 14.6309 0.0126621 14.6917 0.037821C14.7524 0.0629799 14.8076 0.0998566 14.8541 0.146344L17.8541 3.14634C17.9006 3.19279 17.9376 3.24797 17.9628 3.30871C17.988 3.36946 18.001 3.43458 18.001 3.50034C18.001 3.56611 17.988 3.63123 17.9628 3.69198C17.9376 3.75272 17.9006 3.8079 17.8541 3.85434L14.8541 6.85434C14.7602 6.94823 14.6329 7.00098 14.5001 7.00098C14.3673 7.00098 14.24 6.94823 14.1461 6.85434C14.0522 6.76046 13.9995 6.63312 13.9995 6.50034C13.9995 6.36757 14.0522 6.24023 14.1461 6.14634L16.2931 4.00034L0.500084 4.00034C0.367476 4.00034 0.240299 3.94767 0.14653 3.8539C0.0527614 3.76013 8.42178e-05 3.63295 8.42294e-05 3.50034Z" fill="#3BA3FF"/>
</svg>
