<svg width="43" height="43" viewBox="0 0 43 43" fill="none" xmlns="http://www.w3.org/2000/svg">
<rect width="43" height="43" rx="5" fill="#F3F5FF"/>
<path fill-rule="evenodd" clip-rule="evenodd" d="M17.465 11.066C18.638 11.012 19.012 11 22 11C24.988 11 25.362 11.013 26.534 11.066C27.706 11.119 28.506 11.306 29.206 11.577C29.939 11.854 30.604 12.287 31.154 12.847C31.714 13.396 32.146 14.06 32.422 14.794C32.694 15.494 32.88 16.294 32.934 17.464C32.988 18.639 33 19.013 33 22C33 24.988 32.987 25.362 32.934 26.535C32.881 27.705 32.694 28.505 32.422 29.205C32.146 29.9391 31.7133 30.6042 31.154 31.154C30.604 31.714 29.939 32.146 29.206 32.422C28.506 32.694 27.706 32.88 26.536 32.934C25.362 32.988 24.988 33 22 33C19.012 33 18.638 32.987 17.465 32.934C16.295 32.881 15.495 32.694 14.795 32.422C14.0609 32.146 13.3958 31.7133 12.846 31.154C12.2864 30.6047 11.8533 29.9399 11.577 29.206C11.306 28.506 11.12 27.706 11.066 26.536C11.012 25.361 11 24.987 11 22C11 19.012 11.013 18.638 11.066 17.466C11.119 16.294 11.306 15.494 11.577 14.794C11.8537 14.0601 12.2871 13.3953 12.847 12.846C13.396 12.2865 14.0605 11.8534 14.794 11.577C15.494 11.306 16.294 11.12 17.464 11.066H17.465ZM26.445 13.046C25.285 12.993 24.937 12.982 22 12.982C19.063 12.982 18.715 12.993 17.555 13.046C16.482 13.095 15.9 13.274 15.512 13.425C14.999 13.625 14.632 13.862 14.247 14.247C13.882 14.6021 13.6012 15.0343 13.425 15.512C13.274 15.9 13.095 16.482 13.046 17.555C12.993 18.715 12.982 19.063 12.982 22C12.982 24.937 12.993 25.285 13.046 26.445C13.095 27.518 13.274 28.1 13.425 28.488C13.601 28.965 13.882 29.398 14.247 29.753C14.602 30.118 15.035 30.399 15.512 30.575C15.9 30.726 16.482 30.905 17.555 30.954C18.715 31.007 19.062 31.018 22 31.018C24.938 31.018 25.285 31.007 26.445 30.954C27.518 30.905 28.1 30.726 28.488 30.575C29.001 30.375 29.368 30.138 29.753 29.753C30.118 29.398 30.399 28.965 30.575 28.488C30.726 28.1 30.905 27.518 30.954 26.445C31.007 25.285 31.018 24.937 31.018 22C31.018 19.063 31.007 18.715 30.954 17.555C30.905 16.482 30.726 15.9 30.575 15.512C30.375 14.999 30.138 14.632 29.753 14.247C29.3979 13.8821 28.9657 13.6012 28.488 13.425C28.1 13.274 27.518 13.095 26.445 13.046V13.046ZM20.595 25.391C21.3797 25.7176 22.2534 25.7617 23.0669 25.5157C23.8805 25.2697 24.5834 24.7489 25.0556 24.0422C25.5278 23.3356 25.7401 22.4869 25.656 21.6411C25.572 20.7953 25.197 20.005 24.595 19.405C24.2112 19.0215 23.7472 18.7278 23.2363 18.5451C22.7255 18.3625 22.1804 18.2954 21.6405 18.3486C21.1006 18.4019 20.5792 18.5742 20.1138 18.8531C19.6485 19.1321 19.2507 19.5107 18.9493 19.9619C18.6479 20.413 18.4502 20.9253 18.3705 21.462C18.2908 21.9986 18.3312 22.5463 18.4885 23.0655C18.6459 23.5847 18.9165 24.0626 19.2807 24.4647C19.645 24.8668 20.0938 25.1832 20.595 25.391ZM18.002 18.002C18.527 17.477 19.1503 17.0605 19.8363 16.7764C20.5223 16.4922 21.2575 16.346 22 16.346C22.7425 16.346 23.4777 16.4922 24.1637 16.7764C24.8497 17.0605 25.473 17.477 25.998 18.002C26.523 18.527 26.9395 19.1503 27.2236 19.8363C27.5078 20.5223 27.654 21.2575 27.654 22C27.654 22.7425 27.5078 23.4777 27.2236 24.1637C26.9395 24.8497 26.523 25.473 25.998 25.998C24.9377 27.0583 23.4995 27.654 22 27.654C20.5005 27.654 19.0623 27.0583 18.002 25.998C16.9417 24.9377 16.346 23.4995 16.346 22C16.346 20.5005 16.9417 19.0623 18.002 18.002V18.002ZM28.908 17.188C29.0381 17.0653 29.1423 16.9177 29.2143 16.754C29.2863 16.5903 29.3248 16.4138 29.3274 16.2349C29.33 16.0561 29.2967 15.8785 29.2295 15.7128C29.1622 15.5471 29.0624 15.3965 28.936 15.27C28.8095 15.1436 28.6589 15.0438 28.4932 14.9765C28.3275 14.9093 28.1499 14.876 27.9711 14.8786C27.7922 14.8812 27.6157 14.9197 27.452 14.9917C27.2883 15.0637 27.1407 15.1679 27.018 15.298C26.7793 15.551 26.6486 15.8871 26.6537 16.2349C26.6588 16.5827 26.7992 16.9149 27.0452 17.1608C27.2911 17.4068 27.6233 17.5472 27.9711 17.5523C28.3189 17.5574 28.655 17.4267 28.908 17.188V17.188Z" fill="#3477FA"/>
</svg>
