<svg width="43" height="43" viewBox="0 0 43 43" fill="none" xmlns="http://www.w3.org/2000/svg">
<rect width="43" height="43" rx="5" fill="#F3F5FF"/>
<path d="M20.5646 18.6307V20.1454H19.4558V21.9967H20.5646V27.5H22.8438V21.9967H24.3728C24.3728 21.9967 24.5169 21.109 24.5862 20.1377H22.8526V18.8727C22.8526 18.6824 23.1012 18.4283 23.3476 18.4283H24.5884V16.5H22.8999C20.5085 16.5 20.5646 18.3535 20.5646 18.6307Z" fill="#3477FA"/>
<path d="M15.4 13.2C14.8165 13.2 14.2569 13.4318 13.8444 13.8444C13.4318 14.2569 13.2 14.8165 13.2 15.4V28.6C13.2 29.1835 13.4318 29.7431 13.8444 30.1556C14.2569 30.5682 14.8165 30.8 15.4 30.8H28.6C29.1835 30.8 29.7431 30.5682 30.1556 30.1556C30.5682 29.7431 30.8 29.1835 30.8 28.6V15.4C30.8 14.8165 30.5682 14.2569 30.1556 13.8444C29.7431 13.4318 29.1835 13.2 28.6 13.2H15.4ZM15.4 11H28.6C29.767 11 30.8861 11.4636 31.7113 12.2887C32.5364 13.1139 33 14.233 33 15.4V28.6C33 29.767 32.5364 30.8861 31.7113 31.7113C30.8861 32.5364 29.767 33 28.6 33H15.4C14.233 33 13.1139 32.5364 12.2887 31.7113C11.4636 30.8861 11 29.767 11 28.6V15.4C11 14.233 11.4636 13.1139 12.2887 12.2887C13.1139 11.4636 14.233 11 15.4 11V11Z" fill="#3477FA"/>
</svg>
