<svg width="43" height="43" viewBox="0 0 43 43" fill="none" xmlns="http://www.w3.org/2000/svg">
<rect width="43" height="43" rx="5" fill="#F3F5FF"/>
<path d="M37 21.9052C37 21.8307 37 21.7461 36.9965 21.6479C36.9931 21.3737 36.9862 21.0656 36.9792 20.7371C36.9516 19.7926 36.9031 18.8513 36.827 17.9643C36.7232 16.7421 36.571 15.723 36.3634 14.9578C36.1443 14.1593 35.7149 13.4311 35.1181 12.8458C34.5213 12.2606 33.7779 11.839 32.9624 11.623C31.9833 11.3657 30.0665 11.2065 27.3679 11.1083C26.0843 11.0609 24.7107 11.0305 23.3372 11.0135C22.8562 11.0068 22.4099 11.0034 22.0086 11H20.9914C20.5901 11.0034 20.1437 11.0068 19.6628 11.0135C18.2893 11.0305 16.9157 11.0609 15.6321 11.1083C12.9335 11.2099 11.0133 11.369 10.0376 11.623C9.22179 11.8384 8.47816 12.2599 7.88126 12.8452C7.28435 13.4305 6.85513 14.1591 6.63661 14.9578C6.42556 15.723 6.27679 16.7421 6.17299 17.9643C6.09687 18.8513 6.04844 19.7926 6.02076 20.7371C6.01038 21.0656 6.00692 21.3737 6.00346 21.6479C6.00346 21.7461 6 21.8307 6 21.9052V22.0948C6 22.1693 6 22.2539 6.00346 22.3521C6.00692 22.6263 6.01384 22.9344 6.02076 23.2628C6.04844 24.2074 6.09687 25.1487 6.17299 26.0357C6.27679 27.2579 6.42902 28.277 6.63661 29.0422C7.07946 30.6639 8.38036 31.9437 10.0376 32.377C11.0133 32.6343 12.9335 32.7935 15.6321 32.8917C16.9157 32.9391 18.2893 32.9695 19.6628 32.9865C20.1437 32.9932 20.5901 32.9966 20.9914 33H22.0086C22.4099 32.9966 22.8562 32.9932 23.3372 32.9865C24.7107 32.9695 26.0843 32.9391 27.3679 32.8917C30.0665 32.7901 31.9867 32.631 32.9624 32.377C34.6196 31.9437 35.9205 30.6673 36.3634 29.0422C36.5744 28.277 36.7232 27.2579 36.827 26.0357C36.9031 25.1487 36.9516 24.2074 36.9792 23.2628C36.9896 22.9344 36.9931 22.6263 36.9965 22.3521C36.9965 22.2539 37 22.1693 37 22.0948V21.9052ZM34.5089 22.0813C34.5089 22.1524 34.5089 22.2302 34.5055 22.3216C34.502 22.5857 34.4951 22.8769 34.4882 23.1917C34.464 24.0923 34.4155 24.9929 34.3429 25.8292C34.2494 26.9194 34.118 27.8132 33.9554 28.4124C33.7408 29.1945 33.1112 29.8141 32.3154 30.0206C31.5888 30.2102 29.7586 30.3626 27.271 30.454C26.0116 30.5014 24.6554 30.5319 23.3026 30.5488C22.8286 30.5556 22.3892 30.5589 21.9948 30.5589H21.0052L19.6974 30.5488C18.3446 30.5319 16.9919 30.5014 15.729 30.454C13.2414 30.3592 11.4077 30.2102 10.6846 30.0206C9.88884 29.8107 9.25915 29.1945 9.04464 28.4124C8.88203 27.8132 8.75056 26.9194 8.65714 25.8292C8.58449 24.9929 8.53951 24.0923 8.51183 23.1917C8.50145 22.8769 8.49799 22.5823 8.49453 22.3216C8.49453 22.2302 8.49107 22.149 8.49107 22.0813V21.9187C8.49107 21.8476 8.49107 21.7698 8.49453 21.6784C8.49799 21.4143 8.50491 21.1231 8.51183 20.8082C8.53605 19.9077 8.58449 19.0071 8.65714 18.1708C8.75056 17.0806 8.88203 16.1868 9.04464 15.5876C9.25915 14.8055 9.88884 14.1859 10.6846 13.9794C11.4112 13.7898 13.2414 13.6374 15.729 13.546C16.9884 13.4986 18.3446 13.4681 19.6974 13.4512C20.1714 13.4444 20.6108 13.4411 21.0052 13.4411H21.9948L23.3026 13.4512C24.6554 13.4681 26.0081 13.4986 27.271 13.546C29.7586 13.6408 31.5923 13.7898 32.3154 13.9794C33.1112 14.1893 33.7408 14.8055 33.9554 15.5876C34.118 16.1868 34.2494 17.0806 34.3429 18.1708C34.4155 19.0071 34.4605 19.9077 34.4882 20.8082C34.4985 21.1231 34.502 21.4177 34.5055 21.6784C34.5055 21.7698 34.5089 21.851 34.5089 21.9187V22.0813ZM18.4208 26.5368L26.4475 21.9661L18.4208 17.4632V26.5368Z" fill="#3477FA"/>
</svg>
