<svg width="1920" height="1135" viewBox="0 0 1920 1135" fill="none" xmlns="http://www.w3.org/2000/svg">
<path d="M-9 221.762C18.5793 145.738 132.796 20.1036 369.027 125.761C664.316 257.832 942.962 305 1243.96 192.906C1544.95 80.812 1546.38 44.7421 1629.12 20.3256C1695.31 0.79237 1865.29 201.97 1942 305" stroke="white" stroke-opacity="0.3" stroke-width="2"/>
<path d="M-221 510.44C-39 419.274 322.6 304.14 313 572.94C303.4 841.74 450.667 1058.94 525.5 1133.94" stroke="white" stroke-opacity="0.2" stroke-width="2"/>
<path d="M-118.5 514.5C27.5 533.667 412.7 646.5 785.5 944.5C1158.3 1242.5 1456.17 1025.33 1558.5 879.5C1573.17 740.833 1698.6 473.7 2083 514.5" stroke="white" stroke-opacity="0.1" stroke-width="2"/>
<path d="M686 1.43841C860.224 -22.1564 1378.87 -52.8471 1629.81 276.622C1760.35 448.016 2034.94 603.9 2215 621" stroke="white" stroke-opacity="0.2" stroke-width="2"/>
<path d="M1583 865.335C1680.33 753.335 1931.1 536.135 2155.5 563.335" stroke="white" stroke-opacity="0.1" stroke-width="2"/>
</svg>
